<svg xmlns="http://www.w3.org/2000/svg" viewBox="0 0 128 128" width="128" height="128">
  <rect width="128" height="128" rx="16" fill="#23282d"/>
  <!-- Three layers -->
  <polygon points="64,84 18,64 64,44 110,64" fill="none" stroke="#0073aa" stroke-width="4"/>
  <polygon points="64,72 18,52 64,32 110,52" fill="none" stroke="#d54e21" stroke-width="4"/>
  <polygon points="64,60 18,40 64,20 110,40" fill="none" stroke="#ffffff" stroke-width="4.5"/>
  <!-- White backing circle for the W logo -->
  <circle cx="64" cy="52" r="21" fill="#ffffff"/>
  <!-- WordPress W logomark - exact original, currentColor = #23282d -->
  <g transform="translate(44.95, 32.94) scale(1.4)">
    <path fill="#23282d" d="M13.605.924c2.538 0 5.009.756 7.101 2.173a12.75 12.75 0 0 1 4.604 5.589 12.65 12.65 0 0 1-1.175 12.029 12.75 12.75 0 0 1-5.589 4.603 12.65 12.65 0 0 1-12.028-1.175 12.75 12.75 0 0 1-4.604-5.588A12.65 12.65 0 0 1 3.09 6.526a12.75 12.75 0 0 1 5.589-4.603 12.6 12.6 0 0 1 4.927-1m0-.81c-7.452 0-13.5 6.048-13.5 13.5 0 7.451 6.048 13.5 13.5 13.5s13.5-6.049 13.5-13.5c0-7.452-6.048-13.5-13.5-13.5"/>
    <path fill="#23282d" d="M2.36 13.613a11.24 11.24 0 0 0 6.345 10.125L3.332 9.037a11.15 11.15 0 0 0-.972 4.576m18.846-.567c0-1.39-.5-2.349-.931-3.105s-1.107-1.714-1.107-2.632.783-1.998 1.89-1.998h.148c-4.576-4.199-11.69-3.888-15.89.702-.404.445-.782.918-1.106 1.417h.729c1.174 0 2.997-.148 2.997-.148.607-.04.675.85.067.931 0 0-.607.068-1.282.108l4.09 12.19 2.457-7.384-1.755-4.806a26 26 0 0 1-1.174-.108c-.608-.04-.54-.958.067-.931 0 0 1.863.148 2.957.148s2.997-.148 2.997-.148c.607-.04.675.85.067.931 0 0-.607.068-1.282.108l4.063 12.096 1.161-3.672c.513-1.606.824-2.74.824-3.712zm-7.411 1.54L10.42 24.4c2.268.661 4.684.607 6.912-.176l-.081-.148zm9.68-6.373c.053.378.08.77.08 1.161 0 1.148-.216 2.43-.85 4.023l-3.443 9.936c5.265-3.064 7.142-9.774 4.212-15.12"/>
  </g>
  <!-- {.json} label -->
  <text x="64" y="110" font-family="monospace" font-size="18" font-weight="bold" fill="#ffffff" text-anchor="middle">{.json}</text>
</svg>
